<svg width="20" height="20" viewBox="0 0 20 20" fill="none" xmlns="http://www.w3.org/2000/svg">
<path d="M14 9.5V10.5C14 10.7063 13.8313 10.875 13.625 10.875H10.875V13.625C10.875 13.8313 10.7063 14 10.5 14H9.5C9.29375 14 9.125 13.8313 9.125 13.625V10.875H6.375C6.16875 10.875 6 10.7063 6 10.5V9.5C6 9.29375 6.16875 9.125 6.375 9.125H9.125V6.375C9.125 6.16875 9.29375 6 9.5 6H10.5C10.7063 6 10.875 6.16875 10.875 6.375V9.125H13.625C13.8313 9.125 14 9.29375 14 9.5ZM17.75 10C17.75 14.2812 14.2812 17.75 10 17.75C5.71875 17.75 2.25 14.2812 2.25 10C2.25 5.71875 5.71875 2.25 10 2.25C14.2812 2.25 17.75 5.71875 17.75 10ZM16.25 10C16.25 6.54688 13.4531 3.75 10 3.75C6.54688 3.75 3.75 6.54688 3.75 10C3.75 13.4531 6.54688 16.25 10 16.25C13.4531 16.25 16.25 13.4531 16.25 10Z" fill="white" fill-opacity="0.6"/>
</svg>
