<svg width="20" height="20" viewBox="0 0 20 20" fill="none" xmlns="http://www.w3.org/2000/svg">
<g opacity="0.6">
<path d="M10 2.25C5.71875 2.25 2.25 5.71875 2.25 10C2.25 14.2812 5.71875 17.75 10 17.75C14.2812 17.75 17.75 14.2812 17.75 10C17.75 5.71875 14.2812 2.25 10 2.25ZM10 16.25C6.54688 16.25 3.75 13.4531 3.75 10C3.75 6.54688 6.54688 3.75 10 3.75C13.4531 3.75 16.25 6.54688 16.25 10C16.25 13.4531 13.4531 16.25 10 16.25ZM13.1812 8.05625L11.2375 10L13.1812 11.9438C13.3281 12.0906 13.3281 12.3281 13.1812 12.475L12.475 13.1812C12.3281 13.3281 12.0906 13.3281 11.9438 13.1812L10 11.2375L8.05625 13.1812C7.90938 13.3281 7.67188 13.3281 7.525 13.1812L6.81875 12.475C6.67188 12.3281 6.67188 12.0906 6.81875 11.9438L8.7625 10L6.81875 8.05625C6.67188 7.90938 6.67188 7.67188 6.81875 7.525L7.525 6.81875C7.67188 6.67188 7.90938 6.67188 8.05625 6.81875L10 8.7625L11.9438 6.81875C12.0906 6.67188 12.3281 6.67188 12.475 6.81875L13.1812 7.525C13.3281 7.67188 13.3281 7.90938 13.1812 8.05625Z" fill="white"/>
</g>
</svg>
