<svg width="11" height="12" viewBox="0 0 11 12" fill="none" xmlns="http://www.w3.org/2000/svg">
<path d="M9.375 0.75H1.125C0.503672 0.75 0 1.25367 0 1.875V10.125C0 10.7463 0.503672 11.25 1.125 11.25H9.375C9.99633 11.25 10.5 10.7463 10.5 10.125V1.875C10.5 1.25367 9.99633 0.75 9.375 0.75ZM9.23438 10.125H1.26562C1.22833 10.125 1.19256 10.1102 1.16619 10.0838C1.13982 10.0574 1.125 10.0217 1.125 9.98438V2.01562C1.125 1.97833 1.13982 1.94256 1.16619 1.91619C1.19256 1.88982 1.22833 1.875 1.26562 1.875H9.23438C9.27167 1.875 9.30744 1.88982 9.33381 1.91619C9.36018 1.94256 9.375 1.97833 9.375 2.01562V9.98438C9.375 10.0217 9.36018 10.0574 9.33381 10.0838C9.30744 10.1102 9.27167 10.125 9.23438 10.125ZM7.96875 3H4.7816C4.5318 3 4.40569 3.30305 4.58273 3.48012L5.71212 4.60983L2.33238 7.98956C2.22255 8.09939 2.22255 8.27747 2.33238 8.38732L2.8627 8.91764C2.97255 9.02747 3.15063 9.02747 3.26046 8.91764L6.64017 5.53793L7.76988 6.66743C7.94597 6.84352 8.25 6.71981 8.25 6.46856V3.28125C8.25 3.12593 8.12407 3 7.96875 3Z" fill="white"/>
</svg>
