<svg width="20" height="20" viewBox="0 0 20 20" fill="none" xmlns="http://www.w3.org/2000/svg">
<path opacity="0.4" d="M15.5101 15.1157C14.1592 15.1157 13.0793 16.6781 13.0793 18.4969H17.9409C17.9409 16.6776 16.8608 15.1157 15.5101 15.1157ZM15.5101 12.8616C16.8611 12.8616 17.9409 11.2992 17.9409 9.48047H13.0793C13.0793 11.2997 14.1594 12.8616 15.5101 12.8616Z" fill="white"/>
<path d="M19.4391 9.48088C19.5878 9.48088 19.7305 9.42151 19.8357 9.31583C19.9409 9.21015 20 9.06681 20 8.91735V8.54167C20 8.39221 19.9409 8.24888 19.8357 8.1432C19.7305 8.03752 19.5878 7.97815 19.4391 7.97815H11.5858C11.4371 7.97815 11.2944 8.03752 11.1892 8.1432C11.084 8.24888 11.0249 8.39221 11.0249 8.54167V8.91735C11.0249 9.06681 11.084 9.21015 11.1892 9.31583C11.2944 9.42151 11.4371 9.48088 11.5858 9.48088C11.5858 11.6176 12.7779 13.4192 14.4102 13.9891C12.7779 14.5589 11.5858 16.3606 11.5858 18.4973C11.4371 18.4973 11.2944 18.5566 11.1892 18.6623C11.084 18.768 11.0249 18.9113 11.0249 19.0608V19.4365C11.0249 19.5859 11.084 19.7293 11.1892 19.8349C11.2944 19.9406 11.4371 20 11.5858 20H19.4391C19.5878 20 19.7305 19.9406 19.8357 19.8349C19.9409 19.7293 20 19.5859 20 19.4365V19.0608C20 18.9113 19.9409 18.768 19.8357 18.6623C19.7305 18.5566 19.5878 18.4973 19.4391 18.4973C19.4391 16.3606 18.2471 14.5589 16.6147 13.9891C18.2471 13.4192 19.4391 11.6176 19.4391 9.48088ZM17.9432 18.4973H13.0817C13.0817 16.6785 14.1615 15.1161 15.5125 15.1161C16.8634 15.1161 17.9432 16.678 17.9432 18.4973ZM15.5125 12.862C14.1618 12.862 13.0817 11.3001 13.0817 9.48088H17.9432C17.9432 11.2997 16.8634 12.862 15.5125 12.862Z" fill="white"/>
<path d="M1.49586 10.0182C1.20001 10.0182 0.910797 10.1064 0.664804 10.2715C0.418812 10.4366 0.227084 10.6713 0.113866 10.9459C0.000648134 11.2205 -0.0289748 11.5226 0.0287432 11.8141C0.0864612 12.1056 0.228928 12.3734 0.438127 12.5835C0.647327 12.7937 0.913863 12.9368 1.20403 12.9948C1.4942 13.0528 1.79497 13.023 2.0683 12.9093C2.34163 12.7956 2.57525 12.603 2.73962 12.3558C2.90399 12.1087 2.99172 11.8182 2.99172 11.521C2.99172 11.1224 2.83412 10.7402 2.55359 10.4584C2.27306 10.1765 1.89258 10.0182 1.49586 10.0182ZM1.49586 5.00911C1.20001 5.00911 0.910797 5.09724 0.664804 5.26237C0.418812 5.42749 0.227084 5.66218 0.113866 5.93677C0.000648134 6.21136 -0.0289748 6.51351 0.0287432 6.80501C0.0864612 7.09651 0.228928 7.36428 0.438127 7.57444C0.647327 7.7846 0.913863 7.92772 1.20403 7.9857C1.4942 8.04368 1.79497 8.01393 2.0683 7.90019C2.34163 7.78645 2.57525 7.59384 2.73962 7.34672C2.90399 7.09959 2.99172 6.80906 2.99172 6.51184C2.99172 6.11329 2.83412 5.73107 2.55359 5.44925C2.27306 5.16743 1.89258 5.00911 1.49586 5.00911ZM1.49586 0C1.20001 0 0.910797 0.0881337 0.664804 0.253256C0.418812 0.418379 0.227084 0.653073 0.113866 0.927662C0.000648134 1.20225 -0.0289748 1.5044 0.0287432 1.7959C0.0864612 2.0874 0.228928 2.35517 0.438127 2.56533C0.647327 2.77549 0.913863 2.91861 1.20403 2.97659C1.4942 3.03458 1.79497 3.00482 2.0683 2.89108C2.34163 2.77734 2.57525 2.58473 2.73962 2.33761C2.90399 2.09048 2.99172 1.79995 2.99172 1.50273C2.99172 1.10418 2.83412 0.721957 2.55359 0.44014C2.27306 0.158323 1.89258 0 1.49586 0Z" fill="white"/>
<g opacity="0.4">
<path d="M4.36115 0.515625H13.9468C14.079 0.515625 14.2058 0.568399 14.2993 0.662339C14.3928 0.756278 14.4454 0.883686 14.4454 1.01654V1.51745C14.4454 1.6503 14.3928 1.77771 14.2993 1.87164C14.2058 1.96558 14.079 2.01836 13.9468 2.01836H4.36115C4.22891 2.01836 4.10209 1.96558 4.00858 1.87164C3.91507 1.77771 3.86254 1.6503 3.86254 1.51745V1.01654C3.86254 0.883686 3.91507 0.756278 4.00858 0.662339C4.10209 0.568399 4.22891 0.515625 4.36115 0.515625Z" fill="white"/>
<path d="M4.32369 5.76038H13.9468C14.079 5.76038 14.2058 5.81316 14.2993 5.9071C14.3928 6.00104 14.4454 6.12844 14.4454 6.26129V6.76221C14.4454 6.89506 14.3928 7.02246 14.2993 7.1164C14.2058 7.21034 14.079 7.26312 13.9468 7.26312H4.32369C4.19145 7.26312 4.06462 7.21034 3.97112 7.1164C3.87761 7.02246 3.82507 6.89506 3.82507 6.76221V6.26129C3.82507 6.12844 3.87761 6.00104 3.97112 5.9071C4.06462 5.81316 4.19145 5.76038 4.32369 5.76038Z" fill="white"/>
<path d="M4.36115 11.0326H10.3993C10.5315 11.0326 10.6584 11.0853 10.7519 11.1793C10.8454 11.2732 10.8979 11.4006 10.8979 11.5335V12.0344C10.8979 12.1672 10.8454 12.2946 10.7519 12.3886C10.6584 12.4825 10.5315 12.5353 10.3993 12.5353H4.36115C4.22891 12.5353 4.10209 12.4825 4.00858 12.3886C3.91507 12.2946 3.86254 12.1672 3.86254 12.0344V11.5335C3.86254 11.4006 3.91507 11.2732 4.00858 11.1793C4.10209 11.0853 4.22891 11.0326 4.36115 11.0326Z" fill="white"/>
</g>
</svg>
