<svg width="16" height="16" viewBox="0 0 16 16" fill="none" xmlns="http://www.w3.org/2000/svg">
<path d="M8 2.1875C4.79007 2.1875 2.1875 4.79101 2.1875 8C2.1875 11.2109 4.79007 13.8125 8 13.8125C11.2099 13.8125 13.8125 11.2109 13.8125 8C13.8125 4.79101 11.2099 2.1875 8 2.1875ZM8 12.6875C5.40941 12.6875 3.3125 10.5915 3.3125 8C3.3125 5.41027 5.4095 3.3125 8 3.3125C10.5896 3.3125 12.6875 5.40948 12.6875 8C12.6875 10.5905 10.5915 12.6875 8 12.6875ZM10.5135 6.70625C10.5135 8.27778 8.81616 8.30197 8.81616 8.88273V9.03125C8.81616 9.18657 8.69023 9.3125 8.53491 9.3125H7.46506C7.30974 9.3125 7.18381 9.18657 7.18381 9.03125V8.8283C7.18381 7.99053 7.81897 7.65563 8.29895 7.38652C8.71053 7.15578 8.96279 6.99884 8.96279 6.69327C8.96279 6.28906 8.44719 6.02077 8.03035 6.02077C7.48686 6.02077 7.23596 6.27805 6.88327 6.72317C6.78819 6.84317 6.61468 6.86546 6.49266 6.77295L5.84054 6.27847C5.72084 6.18772 5.69403 6.01911 5.77857 5.89496C6.33233 5.08182 7.03766 4.625 8.1358 4.625C9.2859 4.625 10.5135 5.52275 10.5135 6.70625ZM8.98438 10.625C8.98438 11.1678 8.54279 11.6094 8 11.6094C7.45721 11.6094 7.01562 11.1678 7.01562 10.625C7.01562 10.0822 7.45721 9.64062 8 9.64062C8.54279 9.64062 8.98438 10.0822 8.98438 10.625Z" fill="white" fill-opacity="0.4"/>
</svg>
