<svg width="12" height="16" viewBox="0 0 12 16" fill="none" xmlns="http://www.w3.org/2000/svg">
<path d="M11.5572 3.06188L8.93563 0.440625C8.65438 0.159375 8.27312 0 7.87656 0H1.49969C0.671875 0.003125 0 0.675 0 1.50281V14.5003C0 15.3281 0.671875 16 1.49969 16H10.4978C11.3259 16 12 15.3281 12 14.5003V4.12406C12 3.7275 11.8384 3.34313 11.5572 3.06188ZM7.99844 1.62469L10.3763 4.00219H7.99844V1.62469ZM10.5 14.5003H1.49969V1.50281H6.49875V4.75219C6.49875 5.16781 6.83313 5.50187 7.24875 5.50187H10.5V14.5003ZM5.71812 7.11844L3.45844 9.36125C3.22094 9.59688 3.38781 10.0025 3.7225 10.0025H5.25V12.6275C5.25 12.8347 5.41781 13.0025 5.625 13.0025H6.375C6.58219 13.0025 6.75 12.8347 6.75 12.6275V10.0025H8.2775C8.61219 10.0025 8.77906 9.59719 8.54156 9.36125L6.28188 7.11844C6.12594 6.96375 5.87406 6.96375 5.71812 7.11844Z" fill="white"/>
</svg>
